PathFileType	4	(X/Y/Z)	D:\Share\Shared_Data\Ergonomics\Sit To Stand Pertubation\S1\Unperturbed_NoHarness.trc
DataRate	CameraRate	NumFrames	NumMarkers	Units	OrigDataRate	OrigDataStartFrame	OrigNumFrames	
100	100	19	18	m	100	1901	241
Frame#	Time	R_Thigh_Med			R_ASIS			R_Pelvis			V_Sacral			L_Pelvis			L_ASIS			Clavical			R_Acromium			L_Acromium			Sternum			Torso			R_Thigh_Lat			R_Thigh			R_Shank_Med			R_Shank_Lat			R_Shank			R_Heel			R_Toe			
		X1	Y1	Z1	X2	Y2	Z2	X3	Y3	Z3	X4	Y4	Z4	X5	Y5	Z5	X6	Y6	Z6	X7	Y7	Z7	X8	Y8	Z8	X9	Y9	Z9	X10	Y10	Z10	X11	Y11	Z11	X12	Y12	Z12	X13	Y13	Z13	X14	Y14	Z14	X15	Y15	Z15	X16	Y16	Z16	X17	Y17	Z17	X18	Y18	Z18	

1901	19	0.3387247	0.41267023	0.013863539	0.050256916	0.63467169	0.080384972	-0.034077572	0.63421838	0.11565723	-0.13730884	0.56601453	-0.018147999	-0.038146088	0.6299361	-0.16061229	0.052464939	0.64354675	-0.12016064	0.089244637	0.96346942	-0.023880209	0.033856796	1.0403615	0.12565267	-0.023758612	0.99826935	-0.21995952	0.074808784	0.9768905	0.078691109	0.084061165	0.96994836	-0.083240334	0.33630042	0.43309619	0.13535753	0.21406233	0.54530487	0.082803925	0.31912662	0.096633858	0.069616432	0.29078546	0.10067231	0.14840413	0.31857275	0.31182339	0.15575734	0.24400348	0.032671062	0.092252426	0.4485925	0.051768623	0.12024583
1902	19.01	0.33866934	0.41263266	0.01387866	0.050294899	0.63461273	0.080361534	-0.034077503	0.63420795	0.1156469	-0.1373436	0.56598914	-0.018144987	-0.038175045	0.6299386	-0.16060233	0.052707634	0.64355835	-0.12012498	0.090535904	0.96314166	-0.023809978	0.03542524	1.0401312	0.12578294	-0.022244673	0.99846002	-0.21986174	0.076162582	0.97654199	0.078776489	0.08543486	0.9696532	-0.083147293	0.33626926	0.43310629	0.13538571	0.21401343	0.5453786	0.082807518	0.31913712	0.096632339	0.069603867	0.29078738	0.10066009	0.14838228	0.31852945	0.31181201	0.15576585	0.24401021	0.032681625	0.092245018	0.44858801	0.051770325	0.12024436
1903	19.02	0.33859567	0.41258044	0.013892513	0.050329563	0.6345578	0.0803349	-0.034090122	0.63419574	0.11563667	-0.1373868	0.56595483	-0.018144489	-0.038214645	0.62993909	-0.16059085	0.052921925	0.64355664	-0.12009878	0.091890938	0.96277734	-0.023742283	0.037110611	1.0398773	0.12592195	-0.020633055	0.99864728	-0.21975203	0.077605217	0.97615552	0.078869125	0.086896988	0.96932037	-0.083046356	0.33623389	0.43311691	0.13541742	0.21394011	0.54547632	0.082767761	0.31914633	0.096630417	0.069591614	0.29078796	0.10064475	0.14836156	0.31848209	0.31179776	0.15577896	0.24401624	0.032691822	0.092237923	0.44858524	0.05177356	0.12024255
1904	19.03	0.33850342	0.41251474	0.013905149	0.050359962	0.63450775	0.080305046	-0.034116577	0.63418164	0.11562643	-0.13743965	0.56591071	-0.018144428	-0.038265251	0.62993762	-0.16058078	0.053054176	0.64352509	-0.12008837	0.093316544	0.96237061	-0.023675095	0.038919003	1.0395986	0.12606779	-0.018918793	0.9988277	-0.21962946	0.079141556	0.97573065	0.078970154	0.088452751	0.96894507	-0.082937172	0.33619427	0.43312869	0.13545238	0.21384256	0.54556982	0.082685928	0.31915421	0.096627785	0.069579903	0.29078693	0.10062592	0.14834166	0.31842923	0.31178015	0.15579648	0.24402161	0.032701553	0.092231003	0.4485845	0.05177774	0.12024095
1905	19.04	0.33839767	0.4124411	0.013917972	0.050386059	0.63446399	0.080272011	-0.03415731	0.63416534	0.11561614	-0.13750316	0.56585645	-0.018142231	-0.038326153	0.62993433	-0.16057364	0.053065845	0.64345325	-0.12009744	0.0948255	0.96191522	-0.023603365	0.040856277	1.0392946	0.12621956	-0.017097721	0.99899786	-0.2194938	0.080777596	0.97526752	0.079081055	0.090106926	0.96852393	-0.082819374	0.33615057	0.43314206	0.13549022	0.21372186	0.54564319	0.082569954	0.31916061	0.09662413	0.069569145	0.29078403	0.10060349	0.14832228	0.3183696	0.31175882	0.15581801	0.24402658	0.03271077	0.092224075	0.44858551	0.051781765	0.12023991
1906	19.05	0.33829166	0.41237158	0.013934264	0.050408733	0.63442676	0.080236008	-0.03421196	0.63414734	0.11560587	-0.13757793	0.56579254	-0.018135225	-0.038395012	0.6299281	-0.16056972	0.052968891	0.64334833	-0.12012314	0.096433319	0.96140515	-0.023521084	0.042929356	1.0389659	0.12637693	-0.01516606	0.99915442	-0.21934583	0.082520294	0.97476624	0.079202942	0.091862556	0.96805511	-0.082692574	0.33610263	0.43315765	0.13553032	0.21358118	0.54569781	0.082436333	0.31916568	0.09661927	0.06955983	0.29077957	0.10057778	0.14830334	0.31830219	0.31173358	0.1558429	0.24403159	0.032719582	0.092217026	0.44858746	0.051784706	0.12023928
1907	19.06	0.33820984	0.41232797	0.01395979	0.050429638	0.63439624	0.080197807	-0.034279457	0.63412787	0.11559566	-0.137664	0.56572034	-0.01812149	-0.038468952	0.62991809	-0.16056889	0.05281638	0.64323157	-0.12015709	0.09815316	0.96083777	-0.023424107	0.045145416	1.0386132	0.12653904	-0.01312018	0.99929456	-0.21918559	0.084376663	0.97422662	0.079336052	0.093721153	0.96753815	-0.082556374	0.33604993	0.43317609	0.13557147	0.21342741	0.54574963	0.082309288	0.31916946	0.09661319	0.06955217	0.29077383	0.10054957	0.14828479	0.31822665	0.31170435	0.15587029	0.24403679	0.032728214	0.092209824	0.44858972	0.05178616	0.12023875
1908	19.07	0.33819089	0.41234372	0.014003689	0.050451214	0.63437158	0.080159256	-0.034358067	0.63410742	0.11558562	-0.13776082	0.56564178	-0.018100716	-0.03854628	0.62990381	-0.16057094	0.052663013	0.64312378	-0.12019021	0.099993927	0.96021313	-0.023310904	0.047510662	1.0382365	0.12670411	-0.010956239	0.99941479	-0.21901071	0.086353195	0.97364691	0.079479507	0.095684219	0.96697119	-0.082410576	0.33599161	0.43319849	0.13561208	0.21327347	0.54582306	0.082218971	0.31917184	0.09660598	0.069546028	0.29076743	0.1005198	0.14826675	0.3181434	0.31167142	0.15589909	0.24404237	0.032736843	0.092202362	0.44859164	0.051786266	0.12023804
1909	19.08	0.33828857	0.41246432	0.014079099	0.050475456	0.63435132	0.08012365	-0.034445511	0.63408655	0.11557613	-0.13786703	0.56555975	-0.01807424	-0.038626003	0.62988544	-0.16057553	0.052543655	0.64303644	-0.12021618	0.10196072	0.95953229	-0.023181959	0.050029495	1.037835	0.12687042	-0.0086698484	0.99951172	-0.21881668	0.088455391	0.97302441	0.079631516	0.097754082	0.96635181	-0.082255447	0.33592719	0.43322577	0.13565038	0.21313954	0.54594403	0.082200089	0.31917279	0.096597832	0.069541092	0.29076059	0.10048929	0.14824922	0.3180531	0.31163556	0.15592799	0.24404836	0.032745602	0.092194588	0.44859308	0.05178548	0.12023701
1910	19.09	0.33856906	0.41274426	0.014202497	0.050501072	0.63433344	0.080095665	-0.034539139	0.63406586	0.11556815	-0.13798073	0.56547699	-0.01804421	-0.038706554	0.62986316	-0.16058192	0.05247493	0.64297156	-0.1202318	0.10405529	0.9587951	-0.023039114	0.052704208	1.037407	0.12703706	-0.0062563405	0.99958246	-0.21859924	0.090687271	0.97235681	0.07978997	0.099933281	0.96567749	-0.082091873	0.33585663	0.4332587	0.13568481	0.21305199	0.54613867	0.082290527	0.31917218	0.096589157	0.069536964	0.29075308	0.10045867	0.14823228	0.31795694	0.31159802	0.15595555	0.24405458	0.032754578	0.092186646	0.44859399	0.051784325	0.1202356
1911	19.1	0.3391008	0.41323856	0.01439119	0.050521042	0.63431488	0.080081245	-0.034636131	0.63404565	0.11556308	-0.1380999	0.565396	-0.018012806	-0.038786697	0.62983795	-0.16058856	0.052462334	0.64292627	-0.1202361	0.10627679	0.95800055	-0.022884718	0.055535797	1.0369493	0.12720391	-0.0037116289	0.99962573	-0.21835724	0.09305069	0.97164227	0.079953354	0.10222388	0.96494696	-0.08192086	0.33578046	0.43329694	0.1357141	0.21303883	0.5464295	0.08252755	0.31916995	0.096580246	0.069533356	0.29074478	0.10042857	0.14821593	0.31785623	0.3115607	0.15597993	0.24406079	0.032763638	0.092178909	0.44859479	0.051783215	0.12023408
1912	19.11	0.33993436	0.41398642	0.014658123	0.05052282	0.63429132	0.0800877	-0.034733608	0.63402594	0.11556259	-0.1382226	0.56531775	-0.017981304	-0.038867008	0.62981232	-0.1605929	0.052505367	0.64289648	-0.12022913	0.10862233	0.95714642	-0.022720686	0.058525078	1.0364576	0.12737116	-0.0010333225	0.99964319	-0.21809587	0.095545029	0.97087805	0.080120895	0.10462739	0.96416058	-0.081742661	0.33569974	0.43333939	0.13573743	0.2131223	0.54683179	0.082938354	0.31916608	0.096571205	0.069530075	0.29073584	0.10039959	0.14820036	0.31775201	0.31152539	0.15599899	0.24406647	0.032772305	0.092172005	0.44859576	0.051782318	0.12023284
1913	19.12	0.34106897	0.41498468	0.015002912	0.050491104	0.63425616	0.080123489	-0.034828434	0.63400616	0.11556805	-0.13834717	0.56524219	-0.017949181	-0.038948681	0.62979028	-0.16059184	0.052600475	0.6428783	-0.12021148	0.11108792	0.95623071	-0.022548086	0.06167271	1.0359261	0.12753976	0.001778741	0.99963989	-0.21782693	0.098167892	0.97006067	0.080292534	0.10714528	0.96331927	-0.081556732	0.33561517	0.43338394	0.13575456	0.21330713	0.5473432	0.083523048	0.31916058	0.096562187	0.069526894	0.29072635	0.10037249	0.1481855	0.31764545	0.31149393	0.15601099	0.24407135	0.032779964	0.092166412	0.44859708	0.051781525	0.12023222
1914	19.13	0.34241449	0.41615762	0.015401351	0.050411003	0.63420111	0.080197296	-0.034917084	0.6339859	0.11558002	-0.13847205	0.56516846	-0.017914751	-0.039030647	0.62977557	-0.16058263	0.052743153	0.64286798	-0.12018393	0.11367023	0.95525079	-0.022367502	0.064978294	1.035348	0.12771156	0.0047234268	0.99962195	-0.21756432	0.10091651	0.96918665	0.080468491	0.10977946	0.96242389	-0.081362221	0.33552716	0.4334285	0.13576567	0.2135674	0.54793298	0.084233902	0.31915366	0.096553345	0.069523521	0.29071619	0.10034821	0.14817073	0.31753806	0.31146753	0.15601498	0.24407533	0.032786366	0.092162163	0.44859888	0.051780697	0.12023249
1915	19.14	0.34377866	0.41734708	0.015801968	0.050269917	0.63411578	0.08031498	-0.034995667	0.63396466	0.11559782	-0.13859541	0.56509686	-0.017877062	-0.03910799	0.62977026	-0.16056364	0.052929646	0.64286115	-0.12014738	0.11636814	0.9542038	-0.022179436	0.068440224	1.0347169	0.1278889	0.007799686	0.99959332	-0.21731905	0.10378892	0.96825281	0.0806492	0.11253195	0.96147339	-0.081158157	0.33543576	0.43347083	0.13577145	0.21384206	0.5485379	0.084966614	0.31914572	0.096544884	0.069519539	0.2907052	0.10032779	0.14815489	0.3174317	0.31144684	0.15601126	0.24407854	0.032791721	0.092158661	0.4486011	0.05177993	0.12023387
1916	19.15	0.34490457	0.41834247	0.016136097	0.050060307	0.63398962	0.080474693	-0.035060165	0.63394202	0.11561998	-0.13871478	0.56502917	-0.017836712	-0.03917289	0.62977502	-0.16053433	0.053157776	0.64285187	-0.12010298	0.11918246	0.95308783	-0.021984055	0.07205629	1.0340273	0.12807355	0.011006924	0.99955389	-0.21709752	0.106784	0.96725616	0.080834908	0.11540487	0.96046527	-0.080943527	0.335341	0.43350894	0.13577312	0.21404675	0.54907306	0.08557679	0.31913708	0.096536888	0.069514671	0.29069348	0.10031181	0.14813666	0.31732846	0.31143182	0.15600125	0.24408113	0.032796352	0.092155251	0.44860355	0.051779499	0.12023649
1917	19.16	0.34554742	0.41894357	0.016338585	0.049786446	0.6338147	0.080660446	-0.035106552	0.63391772	0.11564482	-0.138827	0.5649696	-0.017794823	-0.039217369	0.62979016	-0.16049492	0.053426323	0.64283453	-0.12005231	0.12211478	0.95190198	-0.021780769	0.075824669	1.0332751	0.12826627	0.014345863	0.99949811	-0.21690002	0.10990088	0.96619458	0.081025963	0.1184011	0.9593949	-0.080717461	0.33524344	0.43354102	0.13577237	0.21409811	0.54945331	0.085917114	0.31912808	0.096529457	0.069508934	0.2906814	0.10029994	0.14811481	0.3172298	0.31142142	0.15598701	0.24408315	0.03280035	0.092151642	0.44860556	0.051779694	0.12024033
1918	19.17	0.34556296	0.41903217	0.016371658	0.049460762	0.63358289	0.080834877	-0.035130859	0.63389185	0.11567118	-0.13892841	0.56492303	-0.017752293	-0.03923547	0.62981665	-0.16044611	0.053733597	0.64280334	-0.11999746	0.12516641	0.950646	-0.021568529	0.079744812	1.0324567	0.12846722	0.017821007	0.99941467	-0.21671831	0.11313831	0.96506671	0.081223122	0.12152421	0.95825726	-0.080479324	0.33514374	0.43356573	0.13577127	0.21394118	0.54961859	0.085881973	0.31911871	0.096522507	0.06950267	0.29066956	0.10029059	0.14808852	0.31713638	0.31141385	0.15597046	0.24408437	0.032803482	0.092147842	0.44860638	0.051780796	0.12024496
1919	19.18	0.34497122	0.41862347	0.016242264	0.049088959	0.63328284	0.080947037	-0.035128971	0.63386383	0.11569878	-0.13901529	0.5648949	-0.017710407	-0.039223217	0.62985529	-0.16038896	0.0540765	0.64275232	-0.11994105	0.12833853	0.94931934	-0.021346159	0.083817223	1.0315693	0.12867584	0.021441511	0.99928912	-0.2165374	0.11649465	0.96387238	0.081427185	0.12477763	0.95704877	-0.080228134	0.33504272	0.43358157	0.13577209	0.21356898	0.54954999	0.085440811	0.31910846	0.096515785	0.069496452	0.29065887	0.10028124	0.14805774	0.31704797	0.31140665	0.15595303	0.24408417	0.032805248	0.092144012	0.44860522	0.051783245	0.12024962
